<svg xmlns="http://www.w3.org/2000/svg" width="17" height="17" viewBox="0 0 17 17" fill="none">
  <path d="M7.49853 6.43229H8.83187V5.09896H7.49853M8.1652 13.7656C5.2252 13.7656 2.83187 11.3723 2.83187 8.43229C2.83187 5.49229 5.2252 3.09896 8.1652 3.09896C11.1052 3.09896 13.4985 5.49229 13.4985 8.43229C13.4985 11.3723 11.1052 13.7656 8.1652 13.7656ZM8.1652 1.76562C7.28972 1.76562 6.42282 1.93806 5.61398 2.27309C4.80514 2.60813 4.07021 3.09919 3.45116 3.71825C2.20091 4.96849 1.49854 6.66418 1.49854 8.43229C1.49854 10.2004 2.20091 11.8961 3.45116 13.1463C4.07021 13.7654 4.80514 14.2565 5.61398 14.5915C6.42282 14.9265 7.28972 15.099 8.1652 15.099C9.93331 15.099 11.629 14.3966 12.8792 13.1463C14.1295 11.8961 14.8319 10.2004 14.8319 8.43229C14.8319 7.55681 14.6594 6.68991 14.3244 5.88107C13.9894 5.07223 13.4983 4.3373 12.8792 3.71825C12.2602 3.09919 11.5253 2.60813 10.7164 2.27309C9.90759 1.93806 9.04068 1.76563 8.1652 1.76562ZM7.49853 11.7656H8.83187V7.76562H7.49853V11.7656Z" fill="#105BEE"/>
</svg>