<svg width="16" height="16" viewBox="0 0 16 16" fill="none" xmlns="http://www.w3.org/2000/svg">
<path d="M7.99992 13.333C5.05992 13.333 2.66659 10.9397 2.66659 7.99967C2.66659 5.05967 5.05992 2.66634 7.99992 2.66634C10.9399 2.66634 13.3333 5.05967 13.3333 7.99967C13.3333 10.9397 10.9399 13.333 7.99992 13.333ZM7.99992 1.33301C4.31325 1.33301 1.33325 4.31301 1.33325 7.99967C1.33325 11.6863 4.31325 14.6663 7.99992 14.6663C11.6866 14.6663 14.6666 11.6863 14.6666 7.99967C14.6666 4.31301 11.6866 1.33301 7.99992 1.33301ZM9.72658 5.33301L7.99992 7.05967L6.27325 5.33301L5.33325 6.27301L7.05992 7.99967L5.33325 9.72634L6.27325 10.6663L7.99992 8.93967L9.72658 10.6663L10.6666 9.72634L8.93992 7.99967L10.6666 6.27301L9.72658 5.33301Z" fill="#392D93"/>
</svg>
