<svg width="16" height="17" viewBox="0 0 16 17" fill="none" xmlns="http://www.w3.org/2000/svg">
<path d="M9.00008 6.23958H8.00008V9.57292L10.8534 11.2663L11.3334 10.4596L9.00008 9.07292V6.23958ZM8.66675 2.90625C7.07545 2.90625 5.54933 3.53839 4.42411 4.66361C3.29889 5.78883 2.66675 7.31495 2.66675 8.90625H0.666748L3.30675 11.5929L6.00008 8.90625H4.00008C4.00008 7.66857 4.49175 6.48159 5.36692 5.60642C6.24209 4.73125 7.42907 4.23958 8.66675 4.23958C9.90443 4.23958 11.0914 4.73125 11.9666 5.60642C12.8417 6.48159 13.3334 7.66857 13.3334 8.90625C13.3334 10.1439 12.8417 11.3309 11.9666 12.2061C11.0914 13.0813 9.90443 13.5729 8.66675 13.5729C7.38008 13.5729 6.21342 13.0463 5.37341 12.1996L4.42675 13.1463C5.51341 14.2396 7.00008 14.9062 8.66675 14.9062C10.258 14.9062 11.7842 14.2741 12.9094 13.1489C14.0346 12.0237 14.6667 10.4975 14.6667 8.90625C14.6667 7.31495 14.0346 5.78883 12.9094 4.66361C11.7842 3.53839 10.258 2.90625 8.66675 2.90625Z" fill="#392D93"/>
</svg>
