<svg width="16" height="16" viewBox="0 0 16 16" fill="none"
  xmlns="http://www.w3.org/2000/svg">
  <path d="M7.3335 10H8.66683V11.3333H7.3335V10ZM7.3335 4.66667H8.66683V8.66667H7.3335V4.66667ZM8.00016 1.33334C4.3135 1.33334 1.3335 4.33334 1.3335 8C1.3335 9.76811 2.03587 11.4638 3.28612 12.714C3.90517 13.3331 4.6401 13.8242 5.44894 14.1592C6.25778 14.4942 7.12468 14.6667 8.00016 14.6667C9.76827 14.6667 11.464 13.9643 12.7142 12.714C13.9644 11.4638 14.6668 9.76811 14.6668 8C14.6668 7.12452 14.4944 6.25762 14.1594 5.44878C13.8243 4.63994 13.3333 3.90501 12.7142 3.28596C12.0951 2.6669 11.3602 2.17584 10.5514 1.84081C9.74255 1.50577 8.87564 1.33334 8.00016 1.33334ZM8.00016 13.3333C6.58567 13.3333 5.22912 12.7714 4.22893 11.7712C3.22873 10.771 2.66683 9.41449 2.66683 8C2.66683 6.58551 3.22873 5.22896 4.22893 4.22877C5.22912 3.22857 6.58567 2.66667 8.00016 2.66667C9.41465 2.66667 10.7712 3.22857 11.7714 4.22877C12.7716 5.22896 13.3335 6.58551 13.3335 8C13.3335 9.41449 12.7716 10.771 11.7714 11.7712C10.7712 12.7714 9.41465 13.3333 8.00016 13.3333Z" fill="#D90410" />
</svg>
