<svg xmlns="http://www.w3.org/2000/svg" width="16" height="15" viewBox="0 0 16 15" fill="none">
  <path d="M8.3877 0.625L5.8877 3.125H7.7627V8.75H9.0127V3.125H10.8877M12.1377 14.375H4.6377C3.94395 14.375 3.3877 13.8125 3.3877 13.125V5.625C3.3877 5.29348 3.51939 4.97554 3.75381 4.74112C3.98823 4.5067 4.30617 4.375 4.6377 4.375H6.5127V5.625H4.6377V13.125H12.1377V5.625H10.2627V4.375H12.1377C12.4692 4.375 12.7872 4.5067 13.0216 4.74112C13.256 4.97554 13.3877 5.29348 13.3877 5.625V13.125C13.3877 13.4565 13.256 13.7745 13.0216 14.0089C12.7872 14.2433 12.4692 14.375 12.1377 14.375Z" fill="#392D93"/>
</svg>