<svg xmlns="http://www.w3.org/2000/svg" width="30" height="30" viewBox="0 0 30 30" fill="none">
  <path d="M19.8751 23.0625C21.5626 23.0625 22.9376 21.6875 22.9376 20C22.9376 18.3125 21.5626 16.9375 19.8751 16.9375C18.1751 16.9375 16.8126 18.3125 16.8126 20C16.8126 21.6875 18.1751 23.0625 19.8751 23.0625ZM26.3751 20.85L28.2251 22.3C28.3876 22.4375 28.4376 22.6625 28.3251 22.8625L26.5751 25.8875C26.4626 26.075 26.2501 26.15 26.0376 26.075L23.8626 25.2C23.4126 25.55 22.9126 25.8375 22.3876 26.0625L22.0501 28.375C22.0251 28.5875 21.8376 28.75 21.6251 28.75H18.1251C17.9001 28.75 17.7251 28.5875 17.6876 28.375L17.3626 26.0625C16.8251 25.8375 16.3376 25.55 15.8876 25.2L13.7001 26.075C13.5126 26.15 13.2751 26.075 13.1751 25.8875L11.4251 22.8625C11.3126 22.6625 11.3626 22.4375 11.5251 22.3L13.3751 20.85L13.3126 20L13.3751 19.1375L11.5251 17.7C11.3626 17.5625 11.3126 17.325 11.4251 17.1375L13.1751 14.1125C13.2751 13.9125 13.5126 13.8375 13.7001 13.9125L15.8876 14.8C16.3376 14.45 16.8251 14.15 17.3626 13.9375L17.6876 11.6125C17.7251 11.4125 17.9001 11.25 18.1251 11.25H21.6251C21.8376 11.25 22.0251 11.4125 22.0501 11.6125L22.3876 13.9375C22.9126 14.15 23.4126 14.45 23.8626 14.8L26.0376 13.9125C26.2501 13.8375 26.4626 13.9125 26.5751 14.1125L28.3251 17.1375C28.4376 17.325 28.3876 17.5625 28.2251 17.7L26.3751 19.1375L26.4376 20L26.3751 20.85ZM8.36259 10.0875C9.45009 10.0875 10.3251 9.2125 10.3251 8.125C10.3251 7.0375 9.45009 6.15 8.36259 6.15C7.83879 6.15 7.33644 6.35808 6.96606 6.72846C6.59567 7.09885 6.38759 7.6012 6.38759 8.125C6.38759 9.2125 7.27509 10.0875 8.36259 10.0875ZM12.5376 8.675L13.7501 9.6C13.8376 9.6875 13.8626 9.8375 13.7876 9.9625L12.6626 11.9125C12.6001 12.0375 12.4501 12.0875 12.3251 12.0375L10.9251 11.475L10.0001 12.025L9.76259 13.5125C9.73759 13.65 9.62509 13.75 9.48759 13.75H7.23759C7.08759 13.75 6.97509 13.65 6.95009 13.5125L6.75009 12.025L5.80009 11.475L4.37509 12.0375C4.26259 12.0875 4.12509 12.0375 4.05009 11.9125L2.92509 9.9625C2.85009 9.8375 2.88759 9.6875 2.98759 9.6L4.17509 8.675L4.13759 8.125L4.17509 7.575L2.98759 6.65C2.88759 6.5625 2.85009 6.4125 2.92509 6.2875L4.05009 4.3375C4.12509 4.2125 4.26259 4.1625 4.37509 4.2125L5.78759 4.775L6.75009 4.225L6.95009 2.7375C6.97509 2.6 7.08759 2.5 7.23759 2.5H9.48759C9.62509 2.5 9.73759 2.6 9.76259 2.7375L10.0001 4.225L10.9251 4.775L12.3251 4.2125C12.4501 4.1625 12.6001 4.2125 12.6626 4.3375L13.7876 6.2875C13.8626 6.4125 13.8376 6.5625 13.7501 6.65L12.5376 7.575L12.5751 8.125L12.5376 8.675Z" fill="#2B2367"/>
</svg>