<svg xmlns="http://www.w3.org/2000/svg" width="118" height="27" viewBox="0 0 118 27" fill="none">
  <path d="M39.4771 10.274H45.0492L47.0431 20.8956H47.0878L49.0135 10.274H54.5173V26.4442H50.9838V13.8522H50.9391L48.4697 26.4442H45.5247L42.9211 13.8522H42.8764V26.4442H39.4794V10.274H39.4771Z" fill="#2B2367"/>
  <path d="M56.7584 17.9534C56.7819 16.2773 57.2787 15.258 58.1403 14.6695C59.0018 14.081 60.0424 13.8762 61.5607 13.8762C64.574 13.8762 65.9087 14.919 65.9087 17.4991V23.7939C65.9087 24.7214 65.9088 25.9008 66.3396 26.4446H62.8061C62.6695 26.0138 62.6248 25.5171 62.6013 25.0416H62.5565C62.0575 26.1292 60.904 26.7624 59.6798 26.7624C57.6177 26.7624 56.4194 25.6748 56.4194 23.0265C56.4194 21.5999 57.0079 20.3993 57.9143 19.9003C58.8206 19.4012 60.1789 19.1752 61.1982 18.9045C62.307 18.6102 62.5118 18.429 62.5118 17.5014C62.5118 16.7528 62.1728 16.2773 61.3559 16.2773C60.3366 16.2773 60.0424 16.8894 60.0188 17.9534H56.7584ZM61.0169 24.2271C61.7867 24.2271 62.4882 23.7751 62.4882 22.551C62.4882 21.5316 62.5118 20.8984 62.5118 20.3993C61.356 21.0114 60.8592 21.0326 60.5179 21.3057C60.1318 21.5999 59.9506 21.986 59.9506 22.664C59.9506 23.6362 60.3366 24.2271 61.0169 24.2271Z" fill="#2B2367"/>
  <path d="M70.9584 22.5509C70.9819 23.0947 71.0266 23.5702 71.2079 23.9327C71.4127 24.2717 71.7517 24.5001 72.3402 24.5001C73.2018 24.5001 73.6538 23.9563 73.6538 23.2547C73.6538 22.6874 73.3831 22.146 72.2507 21.7599C69.2375 20.7406 67.7897 20.1521 67.7897 17.5696C67.7897 15.1237 69.5106 13.8784 72.4555 13.8784C75.8972 13.8784 76.8953 15.5545 76.8953 17.3201V17.7273H73.6349V17.5014C73.6349 16.4373 73.2041 16.1431 72.4343 16.1431C71.4598 16.1431 71.1891 16.6186 71.1891 17.2754C71.1891 19.4505 77.0554 18.0004 77.0554 22.7557C77.0554 25.2251 75.4029 26.7647 72.3684 26.7647C69.0845 26.7647 67.7026 25.5406 67.7026 23.0947V22.5509H70.9584Z" fill="#2B2367"/>
  <path d="M81.4458 22.5509C81.4693 23.0947 81.5141 23.5702 81.6953 23.9327C81.9001 24.2717 82.2391 24.5001 82.8276 24.5001C83.6892 24.5001 84.1412 23.9563 84.1412 23.2547C84.1412 22.6874 83.8681 22.146 82.7382 21.7599C79.725 20.7406 78.2772 20.1521 78.2772 17.5696C78.2772 15.1237 79.998 13.8784 82.943 13.8784C86.3847 13.8784 87.3828 15.5545 87.3828 17.3201V17.7273H84.1224V17.5014C84.1224 16.4373 83.6916 16.1431 82.9218 16.1431C81.9472 16.1431 81.6765 16.6186 81.6765 17.2754C81.6765 19.4505 87.5429 18.0004 87.5429 22.7557C87.5429 25.2251 85.8903 26.7647 82.8535 26.7647C79.5696 26.7647 78.1877 25.5406 78.1877 23.0947V22.5509H81.4458Z" fill="#2B2367"/>
  <path d="M91.6365 13.3556H88.2395V10.2765H98.8376V13.3556H95.4407V26.4467H91.6365V13.3556Z" fill="#0079B2"/>
  <path d="M103.256 20.9195V21.6657C103.256 23.5678 103.527 24.4977 104.593 24.4977C105.544 24.4977 105.839 23.7962 105.931 22.2566H109.327C109.259 25.291 107.607 26.7647 104.572 26.7647C99.9511 26.7647 99.5886 23.5255 99.5886 19.879C99.5886 16.4373 100.584 13.8784 104.572 13.8784C109.125 13.8784 109.44 16.7551 109.44 20.9218H103.256V20.9195ZM105.907 18.7914C105.907 17.0706 105.681 16.1407 104.662 16.1407C103.461 16.1407 103.259 17.1365 103.259 18.7914H105.907Z" fill="#0079B2"/>
  <path d="M110.888 14.194H114.422V15.9148H114.466C114.942 14.8272 115.869 13.8762 117.411 13.8762C117.593 13.8762 117.774 13.8762 118 13.9209V17.3626C117.637 17.2943 117.343 17.2707 116.981 17.2707C115.509 17.2707 114.558 17.8828 114.558 19.4906V26.4423H110.888V14.194Z" fill="#0079B2"/>
  <path d="M0.413466 15.1148C-0.429297 13.5234 0.0462343 11.506 1.56697 10.4702C3.19835 9.36143 5.43942 9.78752 6.55055 11.4189L11.247 18.3281L13.1726 21.1601C14.2814 22.7915 13.8529 25.0326 12.2239 26.1437C10.5925 27.2525 8.35144 26.824 7.24031 25.1926L0.387574 15.1125H0.413466V15.1148Z" fill="url(#paint0_linear_1037_81954)"/>
  <path d="M35.0844 26.146C33.453 27.2547 31.2119 26.8263 30.1031 25.1949L23.2504 15.1147L17.0097 5.93615C15.9009 4.30477 16.3294 2.06368 17.9584 0.952552C19.5898 -0.156222 21.8308 0.272222 22.9396 1.90125L34.1074 18.3281L36.033 21.16C37.1418 22.7938 36.7157 25.0372 35.0844 26.146Z" fill="url(#paint1_linear_1037_81954)"/>
  <path d="M11.8165 15.1147L5.57584 5.93615C4.46707 4.30477 4.89552 2.06368 6.52454 0.952552C8.15593 -0.156222 10.397 0.272222 11.5082 1.90125L22.6759 18.3281L24.6016 21.16C25.7103 22.7914 25.2842 25.0325 23.6505 26.1436C22.0191 27.2524 19.7781 26.8239 18.6693 25.1926L11.8165 15.1147Z" fill="url(#paint2_linear_1037_81954)"/>
  <defs>
    <linearGradient id="paint0_linear_1037_81954" x1="13.3051" y1="18.3066" x2="0.469353" y2="18.3066" gradientUnits="userSpaceOnUse">
      <stop stop-color="#0079B2"/>
      <stop offset="0.1853" stop-color="#2190C1"/>
      <stop offset="0.4105" stop-color="#41A8CF"/>
      <stop offset="0.6268" stop-color="#59B8DA"/>
      <stop offset="0.8282" stop-color="#67C3E0"/>
      <stop offset="1" stop-color="#6CC6E2"/>
    </linearGradient>
    <linearGradient id="paint1_linear_1037_81954" x1="17.0919" y1="13.5492" x2="35.9509" y2="13.5492" gradientUnits="userSpaceOnUse">
      <stop stop-color="#3C7CB6"/>
      <stop offset="7e-08" stop-color="#3C7CB6"/>
      <stop offset="0.5441" stop-color="#2B2367"/>
      <stop offset="1" stop-color="#2B2367"/>
    </linearGradient>
    <linearGradient id="paint2_linear_1037_81954" x1="24.5101" y1="13.548" x2="5.65094" y2="13.548" gradientUnits="userSpaceOnUse">
      <stop stop-color="#2069A5"/>
      <stop offset="2.7e-07" stop-color="#2069A5"/>
      <stop offset="0.3354" stop-color="#3785B7"/>
      <stop offset="1" stop-color="#6CC6E2"/>
    </linearGradient>
  </defs>
</svg>
