<svg xmlns="http://www.w3.org/2000/svg" width="30" height="31" viewBox="0 0 30 31" fill="none">
  <path d="M20 21.8399V24.3399H2.5V21.8399C2.5 21.8399 2.5 16.8399 11.25 16.8399C20 16.8399 20 21.8399 20 21.8399ZM15.625 9.96491C15.625 9.09962 15.3684 8.25375 14.8877 7.53429C14.407 6.81482 13.7237 6.25407 12.9242 5.92294C12.1248 5.5918 11.2451 5.50516 10.3965 5.67397C9.54781 5.84278 8.76826 6.25946 8.15641 6.87132C7.54455 7.48317 7.12788 8.26272 6.95907 9.11139C6.79026 9.96006 6.87689 10.8397 7.20803 11.6391C7.53916 12.4386 8.09992 13.1219 8.81938 13.6026C9.53885 14.0833 10.3847 14.3399 11.25 14.3399C12.4103 14.3399 13.5231 13.879 14.3436 13.0585C15.1641 12.238 15.625 11.1252 15.625 9.96491ZM19.925 16.8399C20.6934 17.4346 21.3222 18.1905 21.7671 19.0543C22.212 19.9181 22.4621 20.869 22.5 21.8399V24.3399H27.5V21.8399C27.5 21.8399 27.5 17.3024 19.925 16.8399ZM18.75 5.58991C17.8896 5.58512 17.0481 5.84235 16.3375 6.32741C17.0968 7.38833 17.5051 8.66027 17.5051 9.96491C17.5051 11.2696 17.0968 12.5415 16.3375 13.6024C17.0481 14.0875 17.8896 14.3447 18.75 14.3399C19.9103 14.3399 21.0231 13.879 21.8436 13.0585C22.6641 12.238 23.125 11.1252 23.125 9.96491C23.125 8.80459 22.6641 7.69179 21.8436 6.87132C21.0231 6.05085 19.9103 5.58991 18.75 5.58991Z" fill="#2B2367"/>
</svg>