<svg width="15" height="14" viewBox="0 0 15 14" fill="none" xmlns="http://www.w3.org/2000/svg">
    <path d="M7.56071 0.392334C3.89404 0.392334 0.894043 3.39233 0.894043 7.059C0.894043 10.7257 3.89404 13.7257 7.56071 13.7257C11.2274 13.7257 14.2274 10.7257 14.2274 7.059C14.2274 3.39233 11.2274 0.392334 7.56071 0.392334ZM7.56071 12.3923C4.62071 12.3923 2.22738 9.999 2.22738 7.059C2.22738 4.119 4.62071 1.72567 7.56071 1.72567C10.5007 1.72567 12.894 4.119 12.894 7.059C12.894 9.999 10.5007 12.3923 7.56071 12.3923ZM10.6207 4.11233L6.22738 8.50567L4.50071 6.78567L3.56071 7.72567L6.22738 10.3923L11.5607 5.059L10.6207 4.11233Z"
          fill="#FFCDCD"/>
</svg>
