<svg width="21" height="21" viewBox="0 0 21 21" fill="none" xmlns="http://www.w3.org/2000/svg">
<g id="folder-multiple" clip-path="url(#clip0_1805_3989)">
<path id="Vector" d="M18.8148 3.86125H12.1481L10.4814 2.19458H5.48145C5.03942 2.19458 4.61549 2.37017 4.30293 2.68274C3.99037 2.9953 3.81478 3.41922 3.81478 3.86125V13.8612C3.81478 14.3033 3.99037 14.7272 4.30293 15.0398C4.61549 15.3523 5.03942 15.5279 5.48145 15.5279H18.8148C19.2568 15.5279 19.6807 15.3523 19.9933 15.0398C20.3058 14.7272 20.4814 14.3033 20.4814 13.8612V5.52791C20.4814 5.08589 20.3058 4.66196 19.9933 4.3494C19.6807 4.03684 19.2568 3.86125 18.8148 3.86125ZM2.14811 5.52791H0.481445V9.69458V17.1946C0.481445 17.6366 0.65704 18.0605 0.969601 18.3731C1.28216 18.6856 1.70608 18.8612 2.14811 18.8612H17.1481V17.1946H2.14811V5.52791Z" fill="#2B2367"/>
</g>
<defs>
<clipPath id="clip0_1805_3989">
<rect width="20" height="20" fill="white" transform="translate(0.481445 0.527832)"/>
</clipPath>
</defs>
</svg>
