<svg width="100" height="100" viewBox="0 0 100 100" fill="none" xmlns="http://www.w3.org/2000/svg">
<g id="arrow-decision">
<path id="Vector" d="M45.8334 20.8337H33.3334L50 4.16699L66.6667 20.8337H54.1667V39.292C51.0417 41.2087 48.25 43.5837 45.8334 46.3337V20.8337ZM91.6667 45.8337L75 29.167V41.667C59.9584 41.042 47.125 52.3753 45.8334 67.3753C39.3334 69.667 35.9167 76.8337 38.2084 83.3337C40.5 89.8337 47.6667 93.2503 54.1667 90.9587C60.6667 88.6253 64.0834 81.5003 61.7917 75.0003C60.5417 71.417 57.7084 68.6253 54.1667 67.3753C56.125 50.7087 72.7917 49.8753 74.7917 49.8753V62.3753L91.6667 45.8337ZM44.2917 48.292C38.75 44.042 31.9584 41.667 25 41.667V29.167L8.33337 45.8337L25 62.5003V50.0003C30.5834 50.1253 35.9584 52.0837 40.1667 55.8337C41.2084 53.167 42.5834 50.6253 44.2917 48.292Z" fill="#E4EDFF"/>
</g>
</svg>
