<svg width="20" height="20" viewBox="0 0 20 20" fill="none" xmlns="http://www.w3.org/2000/svg">
<g id="arrow-decision">
<path id="Vector" d="M9.16669 4.16634H6.66669L10 0.833008L13.3334 4.16634H10.8334V7.85801C10.2084 8.24134 9.65002 8.71634 9.16669 9.26634V4.16634ZM18.3334 9.16634L15 5.83301V8.33301C11.9917 8.20801 9.42502 10.4747 9.16669 13.4747C7.86669 13.933 7.18335 15.3663 7.64169 16.6663C8.10002 17.9663 9.53335 18.6497 10.8334 18.1913C12.1334 17.7247 12.8167 16.2997 12.3584 14.9997C12.1084 14.283 11.5417 13.7247 10.8334 13.4747C11.225 10.1413 14.5584 9.97468 14.9584 9.97468V12.4747L18.3334 9.16634ZM8.85835 9.65801C7.75002 8.80801 6.39169 8.33301 5.00002 8.33301V5.83301L1.66669 9.16634L5.00002 12.4997V9.99968C6.11669 10.0247 7.19169 10.4163 8.03335 11.1663C8.24169 10.633 8.51669 10.1247 8.85835 9.65801Z" fill="#2B2367"/>
</g>
</svg>
