<svg width="84" height="101" viewBox="0 0 84 101" fill="none" xmlns="http://www.w3.org/2000/svg">
    <path d="M25.3332 0.5625H75.3332C77.5434 0.5625 79.663 1.44047 81.2258 3.00328C82.7886 4.56608 83.6666 6.6857 83.6666 8.89583V75.5625C83.6666 77.7726 82.7886 79.8923 81.2258 81.4551C79.663 83.0179 77.5434 83.8958 75.3332 83.8958H25.3332C23.1231 83.8958 21.0035 83.0179 19.4407 81.4551C17.8779 79.8923 16.9999 77.7726 16.9999 75.5625V8.89583C16.9999 6.6857 17.8779 4.56608 19.4407 3.00328C21.0035 1.44047 23.1231 0.5625 25.3332 0.5625ZM53.4582 48.4792C64.9166 48.4792 67.9999 40.0208 68.7916 35.5625C72.5832 34.3542 75.3332 30.8125 75.3332 26.6042C75.3332 21.3958 71.1666 17.2292 65.9582 17.2292C60.7499 17.2292 56.5832 21.3958 56.5832 26.6042C56.5832 30.5208 58.9582 33.8958 62.3749 35.2708C61.4582 38.0625 58.6666 42.2292 50.3332 42.2292C44.5832 42.2292 40.5832 43.6875 37.8332 45.7292V29.1875C41.4582 27.8958 44.0832 24.4375 44.0832 20.3542C44.0832 15.1458 39.9166 10.9792 34.7082 10.9792C29.4999 10.9792 25.3332 15.1458 25.3332 20.3542C25.3332 24.4375 27.9582 27.8958 31.5832 29.1875V55.2708C27.9582 56.5625 25.3332 60.0208 25.3332 64.1042C25.3332 69.3125 29.4999 73.4792 34.7082 73.4792C39.9166 73.4792 44.0832 69.3125 44.0832 64.1042C44.0832 60.2292 41.7499 56.8125 38.3749 55.4792C39.5416 52.6458 42.9582 48.4792 53.4582 48.4792ZM34.7082 60.9792C35.537 60.9792 36.3319 61.3084 36.918 61.8945C37.504 62.4805 37.8332 63.2754 37.8332 64.1042C37.8332 64.933 37.504 65.7278 36.918 66.3139C36.3319 66.8999 35.537 67.2292 34.7082 67.2292C33.8794 67.2292 33.0846 66.8999 32.4985 66.3139C31.9125 65.7278 31.5832 64.933 31.5832 64.1042C31.5832 63.2754 31.9125 62.4805 32.4985 61.8945C33.0846 61.3084 33.8794 60.9792 34.7082 60.9792ZM34.7082 17.2292C35.537 17.2292 36.3319 17.5584 36.918 18.1445C37.504 18.7305 37.8332 19.5254 37.8332 20.3542C37.8332 21.183 37.504 21.9778 36.918 22.5639C36.3319 23.1499 35.537 23.4792 34.7082 23.4792C33.8794 23.4792 33.0846 23.1499 32.4985 22.5639C31.9125 21.9778 31.5832 21.183 31.5832 20.3542C31.5832 19.5254 31.9125 18.7305 32.4985 18.1445C33.0846 17.5584 33.8794 17.2292 34.7082 17.2292ZM65.9582 23.4792C66.787 23.4792 67.5819 23.8084 68.168 24.3945C68.754 24.9805 69.0832 25.7754 69.0832 26.6042C69.0832 27.433 68.754 28.2278 68.168 28.8139C67.5819 29.3999 66.787 29.7292 65.9582 29.7292C65.1294 29.7292 64.3346 29.3999 63.7485 28.8139C63.1625 28.2278 62.8332 27.433 62.8332 26.6042C62.8332 25.7754 63.1625 24.9805 63.7485 24.3945C64.3346 23.8084 65.1294 23.4792 65.9582 23.4792ZM58.6666 92.2292V100.562H8.66658C6.45645 100.562 4.33683 99.6845 2.77403 98.1217C1.21123 96.5589 0.333252 94.4393 0.333252 92.2292V25.5625H8.66658V92.2292H58.6666Z"
          fill="#E4EDFF"/>
</svg>
