<svg width="100" height="101" viewBox="0 0 100 101" fill="none" xmlns="http://www.w3.org/2000/svg">
    <g id="source-repository-multiple" clip-path="url(#clip0_1586_2856)">
        <path id="Vector"
              d="M33.3333 0.5625H83.3333C85.5434 0.5625 87.6631 1.44047 89.2259 3.00328C90.7887 4.56608 91.6666 6.6857 91.6666 8.89583V75.5625C91.6666 77.7726 90.7887 79.8923 89.2259 81.4551C87.6631 83.0179 85.5434 83.8958 83.3333 83.8958H33.3333C31.1232 83.8958 29.0036 83.0179 27.4408 81.4551C25.878 79.8923 25 77.7726 25 75.5625V8.89583C25 6.6857 25.878 4.56608 27.4408 3.00328C29.0036 1.44047 31.1232 0.5625 33.3333 0.5625ZM61.4583 48.4792C72.9166 48.4792 76 40.0208 76.7916 35.5625C80.5833 34.3542 83.3333 30.8125 83.3333 26.6042C83.3333 21.3958 79.1666 17.2292 73.9583 17.2292C68.75 17.2292 64.5833 21.3958 64.5833 26.6042C64.5833 30.5208 66.9583 33.8958 70.375 35.2708C69.4583 38.0625 66.6666 42.2292 58.3333 42.2292C52.5833 42.2292 48.5833 43.6875 45.8333 45.7292V29.1875C49.4583 27.8958 52.0833 24.4375 52.0833 20.3542C52.0833 15.1458 47.9166 10.9792 42.7083 10.9792C37.5 10.9792 33.3333 15.1458 33.3333 20.3542C33.3333 24.4375 35.9583 27.8958 39.5833 29.1875V55.2708C35.9583 56.5625 33.3333 60.0208 33.3333 64.1042C33.3333 69.3125 37.5 73.4792 42.7083 73.4792C47.9166 73.4792 52.0833 69.3125 52.0833 64.1042C52.0833 60.2292 49.75 56.8125 46.375 55.4792C47.5416 52.6458 50.9583 48.4792 61.4583 48.4792ZM42.7083 60.9792C43.5371 60.9792 44.332 61.3084 44.918 61.8945C45.5041 62.4805 45.8333 63.2754 45.8333 64.1042C45.8333 64.933 45.5041 65.7278 44.918 66.3139C44.332 66.8999 43.5371 67.2292 42.7083 67.2292C41.8795 67.2292 41.0847 66.8999 40.4986 66.3139C39.9125 65.7278 39.5833 64.933 39.5833 64.1042C39.5833 63.2754 39.9125 62.4805 40.4986 61.8945C41.0847 61.3084 41.8795 60.9792 42.7083 60.9792ZM42.7083 17.2292C43.5371 17.2292 44.332 17.5584 44.918 18.1445C45.5041 18.7305 45.8333 19.5254 45.8333 20.3542C45.8333 21.183 45.5041 21.9778 44.918 22.5639C44.332 23.1499 43.5371 23.4792 42.7083 23.4792C41.8795 23.4792 41.0847 23.1499 40.4986 22.5639C39.9125 21.9778 39.5833 21.183 39.5833 20.3542C39.5833 19.5254 39.9125 18.7305 40.4986 18.1445C41.0847 17.5584 41.8795 17.2292 42.7083 17.2292ZM73.9583 23.4792C74.7871 23.4792 75.582 23.8084 76.168 24.3945C76.7541 24.9805 77.0833 25.7754 77.0833 26.6042C77.0833 27.433 76.7541 28.2278 76.168 28.8139C75.582 29.3999 74.7871 29.7292 73.9583 29.7292C73.1295 29.7292 72.3346 29.3999 71.7486 28.8139C71.1625 28.2278 70.8333 27.433 70.8333 26.6042C70.8333 25.7754 71.1625 24.9805 71.7486 24.3945C72.3346 23.8084 73.1295 23.4792 73.9583 23.4792ZM66.6666 92.2292V100.562H16.6666C14.4565 100.562 12.3369 99.6845 10.7741 98.1217C9.21129 96.5589 8.33331 94.4393 8.33331 92.2292V25.5625H16.6666V92.2292H66.6666Z"
              fill="#E4EDFF"/>
    </g>
    <defs>
        <clipPath id="clip0_1586_2856">
            <rect width="100" height="100" fill="white" transform="translate(0 0.5625)"/>
        </clipPath>
    </defs>
</svg>
