<svg width="21" height="21" viewBox="0 0 21 21" fill="none" xmlns="http://www.w3.org/2000/svg">
<path d="M17.2996 5.38971C18.3413 6.65638 18.983 8.19805 19.133 9.83138H17.4163C17.2496 8.63971 16.7663 7.51471 16.0163 6.58138L17.2996 5.38971ZM11.633 2.37305C13.2663 2.53138 14.808 3.16471 16.0746 4.21471L14.883 5.40638C13.9413 4.66471 12.8163 4.19805 11.633 4.03971V2.37305ZM9.96631 2.38138C8.33297 2.54805 6.79131 3.18971 5.52464 4.22305L6.71631 5.40638C7.65797 4.67305 8.78297 4.19805 9.96631 4.04805V2.38138ZM4.34964 5.38971L5.49131 6.54805V6.58138C4.75797 7.52305 4.28297 8.64805 4.13297 9.83138H2.46631C2.64131 8.19805 3.29964 6.64805 4.34964 5.38971ZM2.46631 12.3314V16.498L3.79964 15.1647C5.28297 17.473 7.85797 18.9981 10.7996 18.9981C14.8163 18.9981 18.1913 16.123 18.9663 12.3314H17.258C16.5163 15.2064 13.8996 17.3314 10.7996 17.3314C8.34131 17.3314 6.12464 15.9897 4.96631 13.998L6.63297 12.3314H2.46631ZM10.7996 14.8314L12.0996 11.9814L14.9663 10.6647L12.0996 9.36471L10.7996 6.49805L9.49131 9.36471L6.63297 10.6647L9.49131 11.9814L10.7996 14.8314Z" fill="#2B2367"/>
</svg>
