<svg width="21" height="21" viewBox="0 0 21 21" fill="none" xmlns="http://www.w3.org/2000/svg">
<path d="M10.9751 2.08203V2.0987V3.76537C14.6334 4.21536 17.2251 7.54037 16.7751 11.1987C16.3918 14.232 14.0084 16.6404 10.9751 16.9987V18.6654C15.5584 18.207 18.8918 14.1404 18.4334 9.55703C18.0584 5.5987 14.9168 2.4737 10.9751 2.08203ZM9.30843 2.10703C7.68343 2.26536 6.13343 2.89036 4.86676 3.94037L6.05843 5.1737C6.99176 4.4237 8.11676 3.94036 9.30843 3.7737V2.10703ZM3.69176 5.11537C2.64176 6.38203 2.01676 7.9237 1.8501 9.55703H3.51676C3.6751 8.3737 4.14176 7.2487 4.88343 6.30703L3.69176 5.11537ZM1.85843 11.2237C2.0251 12.857 2.66676 14.3987 3.7001 15.6654L4.88343 14.4737C4.1501 13.532 3.6751 12.407 3.5251 11.2237H1.85843ZM6.05843 15.6987L4.86676 16.8404C6.1251 17.8904 7.6751 18.5487 9.30843 18.7237V17.057C8.1251 16.907 7.0001 16.432 6.05843 15.6987ZM14.1584 13.0487L10.7334 9.6237C11.0751 8.75703 10.8834 7.74037 10.1668 7.03203C9.41676 6.2737 8.29176 6.1237 7.38343 6.54037L9.0001 8.15703L7.8751 9.29037L6.21676 7.66537C5.76676 8.5737 5.9751 9.6987 6.70843 10.457C7.4251 11.1737 8.44176 11.357 9.30843 11.0237L12.7334 14.4404C12.8834 14.5987 13.1084 14.5987 13.2584 14.4404L14.1251 13.582C14.3084 13.432 14.3084 13.1654 14.1584 13.0487Z" fill="#2B2367"/>
</svg>
