<svg width="21" height="21" viewBox="0 0 21 21" fill="none" xmlns="http://www.w3.org/2000/svg">
<g clip-path="url(#clip0_1045_102472)">
<path d="M18.8148 3.86112H12.1481L10.4814 2.19446H5.48145C5.03942 2.19446 4.61549 2.37005 4.30293 2.68261C3.99037 2.99517 3.81478 3.4191 3.81478 3.86112V13.8611C3.81478 14.3032 3.99037 14.7271 4.30293 15.0396C4.61549 15.3522 5.03942 15.5278 5.48145 15.5278H18.8148C19.2568 15.5278 19.6807 15.3522 19.9933 15.0396C20.3058 14.7271 20.4814 14.3032 20.4814 13.8611V5.52779C20.4814 5.08576 20.3058 4.66184 19.9933 4.34928C19.6807 4.03672 19.2568 3.86112 18.8148 3.86112ZM2.14811 5.52779H0.481445V9.69446V17.1945C0.481445 17.6365 0.65704 18.0604 0.969601 18.373C1.28216 18.6855 1.70608 18.8611 2.14811 18.8611H17.1481V17.1945H2.14811V5.52779Z" fill="#2B2367"/>
</g>
<defs>
<clipPath id="clip0_1045_102472">
<rect width="20" height="20" fill="white" transform="translate(0.481445 0.527832)"/>
</clipPath>
</defs>
</svg>
